C:\Users\u0150099\OneDrive - KU Leuven\Resultaten_KinderUniversiteit\team_Lars\Leo_v7.mot
version=1
nRows=14
nColumns=35
inDegrees=yes
endheader
                time	         pelvis_tilt	           pelvis_tx	           pelvis_ty	       hip_flexion_r	        knee_angle_r	       ankle_angle_r	         mtp_angle_r	       hip_flexion_l	        knee_angle_l	       ankle_angle_l	         mtp_angle_l	    lumbar_extension	          arm_flex_r	          arm_flex_l	        elbow_flex_r	        elbow_flex_l	hamstrings_r/activation	bifemsh_r/activation	glut_max_r/activation	iliopsoas_r/activation	rect_fem_r/activation	  vasti_r/activation	gastroc_r/activation	 soleus_r/activation	tib_ant_r/activation	hamstrings_l/activation	bifemsh_l/activation	glut_max_l/activation	iliopsoas_l/activation	rect_fem_l/activation	  vasti_l/activation	gastroc_l/activation	 soleus_l/activation	tib_ant_l/activation	
          0.00000000	         -9.99001123	          0.00000000	          0.93571939	         36.33256447	         -4.47407367	          3.10033172	          0.21658139	         -5.55712027	        -11.04904339	          6.79846947	         17.17089504	         -0.49207014	        -19.91297593	        -20.16631011	         82.76071592	         82.82749208	          0.36187354	          0.05000000	          0.06318808	          0.05000000	          0.08252907	          0.12672416	          0.07188216	          0.06727365	          0.38499390	          0.05000000	          0.21689228	          0.05000000	          0.63634076	          0.05000001	          0.05000000	          0.59455907	          0.54580131	          0.05000000	
          0.01090830	        -10.18112267	          0.01826724	          0.93392009	         35.16040932	         -3.40849568	          2.26385346	          0.26327358	         -5.24659019	        -13.22750053	          5.93826992	         18.56987128	          0.07723171	        -20.94336897	        -21.20213601	         84.24650404	         84.31229831	          0.31776806	          0.05000000	          0.08731350	          0.05000000	          0.06983308	          0.10722934	          0.07439476	          0.06983313	          0.41254460	          0.05000000	          0.18352629	          0.07623083	          0.57176557	          0.05000000	          0.05000002	          0.58005645	          0.52278683	          0.05000000	
          0.02181659	        -10.35930870	          0.03678608	          0.93237271	         33.91589079	         -2.79788224	          1.29961136	          0.21837478	         -4.70071171	        -15.82612223	          4.77434637	         19.99602087	          0.67592689	        -21.89576274	        -22.15857096	         85.33088984	         85.39508410	          0.27965856	          0.05000000	          0.11519853	          0.05000000	          0.05909020	          0.09073354	          0.06295012	          0.05909024	          0.54558073	          0.07098338	          0.15529322	          0.10769557	          0.48380705	          0.05000000	          0.05000000	          0.53154634	          0.46129362	          0.05000000	
          0.03272489	        -10.52473163	          0.05527743	          0.93129492	         32.59696853	         -2.06439941	          0.20737692	          0.21804843	         -3.88768943	        -18.83683439	          3.17680795	         21.38445806	          1.27159701	        -22.71380289	        -22.97912646	         85.96909118	         86.03118265	          0.24141185	          0.05013531	          0.15847027	          0.05000000	          0.05000000	          0.07677539	          0.05326608	          0.05000000	          0.68530693	          0.08771114	          0.13140342	          0.09112804	          0.40937978	          0.05000000	          0.05000000	          0.44977502	          0.39032974	          0.05000000	
          0.04363319	        -10.67734339	          0.07343663	          0.93084785	         31.29546240	         -1.33021359	         -0.91332484	          0.17762094	         -2.76811324	        -22.25651763	          1.03174445	         22.62926841	          1.82855750	        -23.34549517	        -23.61173185	         86.14237577	         86.20199846	          0.21138720	          0.05000000	          0.18830422	          0.05000000	          0.05000001	          0.06496454	          0.05000001	          0.05000000	          0.79547458	          0.09546904	          0.11118876	          0.07710921	          0.34640215	          0.05000000	          0.05000000	          0.38058312	          0.33028271	          0.05000000	
          0.05454149	        -10.81500834	          0.09104476	          0.93107935	         30.08309438	         -0.78331448	         -1.58605537	          0.14430915	         -1.34134154	        -26.01828331	         -1.75245713	         23.59374995	          2.31908551	        -23.76249860	        -24.02805417	         85.86633328	         85.92324508	          0.18538030	          0.05000000	          0.20836319	          0.05000000	          0.05000001	          0.05560636	          0.05000000	          0.05000000	          0.88158692	          0.08563493	          0.13550533	          0.06524698	          0.29311280	          0.05000000	          0.05000000	          0.32203548	          0.27947311	          0.05000000	
          0.06544978	        -10.93644104	          0.10798851	          0.93194269	         28.97505956	         -0.42483607	         -1.90560369	          0.12155874	          0.36014984	        -30.04985270	         -4.95368502	         23.77406311	          2.72895155	        -23.96001241	        -24.22336562	         85.18011492	         85.23416596	          0.16332994	          0.05000000	          0.21251426	          0.05000000	          0.05000002	          0.05901777	          0.05000003	          0.05000010	          0.92174807	          0.07246114	          0.11618890	          0.05520960	          0.24802130	          0.05000000	          0.05000000	          0.27249461	          0.23647989	          0.05000000	
          0.07635808	        -11.03948599	          0.12426217	          0.93332581	         27.96627070	         -0.23907789	         -1.93429772	          0.10935655	          2.27608903	        -34.29874673	         -8.10126702	         22.47114555	          3.05529484	        -23.95352851	        -24.21327645	         84.13769354	         84.18878990	          0.14409050	          0.05000000	          0.20901547	          0.05000000	          0.05000001	          0.05596433	          0.05000000	          0.05000000	          0.93369466	          0.06131396	          0.09831479	          0.05000000	          0.20986652	          0.05000000	          0.05000000	          0.23057495	          0.20010061	          0.33933100	
          0.08726638	        -11.12355440	          0.13991595	          0.93502381	         27.05021211	         -0.20460418	         -1.78964561	          0.10755251	          4.27030163	        -38.55988488	        -10.21653613	         19.66151748	          3.30323681	        -23.77526135	        -24.03018432	         82.81627761	         82.86437207	          0.12934164	          0.05000000	          0.19365747	          0.05000000	          0.05000002	          0.05000005	          0.05000000	          0.05000000	          0.92353419	          0.05188162	          0.12047106	          0.05000000	          0.17758135	          0.06901196	          0.05000000	          0.19510406	          0.16931780	          0.30539933	
          0.09817467	        -11.18812205	          0.15506547	          0.93693494	         26.21233587	         -0.30085247	         -1.53722545	          0.10236095	          6.20440963	        -42.51073317	        -10.65978279	         17.06043839	          3.48527921	        -23.45348000	        -23.70246483	         81.25775289	         81.30280136	          0.12458278	          0.05000003	          0.19774957	          0.05000000	          0.05000002	          0.05000003	          0.05000000	          0.05000000	          0.89301650	          0.05000000	          0.14241187	          0.05000000	          0.15315494	          0.16186013	          0.05000000	          0.16508990	          0.14327051	          0.39587646	
          0.10908297	        -11.23351568	          0.16984787	          0.93906169	         25.42706144	         -0.49953395	         -1.16490484	          0.09202903	          8.01457155	        -45.93852150	        -10.38908463	         14.83737497	          3.61686344	        -23.00792241	        -23.24989461	         79.47383253	         79.51576971	          0.12257273	          0.07589930	          0.21090556	          0.05000000	          0.05000001	          0.05000003	          0.05000000	          0.05000000	          0.85167657	          0.05000000	          0.18906936	          0.05000000	          0.15058974	          0.23056467	          0.05000000	          0.13969302	          0.12123025	          0.41712451	
          0.11999127	        -11.26012955	          0.18436680	          0.94137744	         24.66953043	         -0.76489188	         -0.69609562	          0.07998948	          9.67385352	        -48.73964047	         -9.86425682	         12.90748641	          3.70901344	        -22.45795669	        -22.69191622	         77.48891470	         77.52767759	          0.12251434	          0.10146433	          0.22486692	          0.05000000	          0.05000001	          0.05000002	          0.05000000	          0.05000000	          0.80067719	          0.05000000	          0.24593687	          0.05000000	          0.15620883	          0.28609121	          0.05000000	          0.11820311	          0.10258059	          0.39937411	
          0.13089957	        -11.26787682	          0.19868861	          0.94382830	         23.91872817	         -1.06414414	         -0.15237172	          0.06356451	         11.18327123	        -50.91158550	         -9.09174066	         11.22783555	          3.76763016	        -21.82127966	        -22.04633081	         75.33675317	         75.37230632	          0.12217425	          0.09751216	          0.23564224	          0.05000000	          0.05000000	          0.05000002	          0.05000000	          0.05000000	          0.74513882	          0.05000000	          0.33130554	          0.05000000	          0.16749836	          0.31844163	          0.05000000	          0.10001914	          0.08679993	          0.37830865	
          0.14180786	        -11.25676456	          0.21284986	          0.94635391	         23.15460848	         -1.36149878	          0.43412950	          0.04556697	         12.56481041	        -52.50674358	         -8.13813382	          9.76636827	          3.79528344	        -21.11229642	        -21.32765697	         73.05209939	         73.08445343	          0.12122498	          0.08251126	          0.24093662	          0.05000000	          0.05000000	          0.05000002	          0.05000000	          0.05000000	          0.69135197	          0.05000000	          0.44815304	          0.05000000	          0.18171405	          0.32937955	          0.05000000	          0.08463253	          0.07344692	          0.35362719	
